Coordinates
version=1
nRows=7
nColumns=32
inDegrees=yes

Units are S.I. units (second, meters, Newtons, ...)
If the header above contains a line with 'inDegrees', this indicates whether rotational values are in degrees (yes) or radians (no).

endheader
time	pelvis_tilt	pelvis_list	pelvis_rotation	pelvis_tx	pelvis_ty	pelvis_tz	hip_flexion_r	hip_adduction_r	hip_rotation_r	knee_angle_r	knee_adduction_r	med_cond_adduction_r	lat_cond_adduction_r	patella_r_constrained_knee_angle	hip_flexion_l	hip_adduction_l	hip_rotation_l	knee_angle_l	knee_adduction_l	med_cond_adduction_l	lat_cond_adduction_l	patella_l_constrained_knee_angle	lumbar_extension	lumbar_bending	lumbar_rotation	ankle_angle_r	subtalar_angle_r	mtp_angle_r	ankle_angle_l	subtalar_angle_l	mtp_angle_l
      0.32500000	      2.40982791	     -0.88434872	     -9.40167661	     -1.14540004	      0.80965452	     -0.25068585	     -8.69681888	      4.40254955	     -0.29433871	    -14.25693442	     -0.04159747	      0.00000000	      0.00000000	     -0.24883045	     28.29477329	     -4.04923264	     -5.62702290	    -32.33198048	      0.11541774	     -0.00000000	     -0.00000000	     -0.56429951	    -15.99727797	      3.66936619	      0.52345070	     12.43098083	      2.83479461	     -0.00000000	     -7.88553976	     -4.16392169	      0.00000000
      0.33000000	      2.38215948	     -1.09571859	     -9.66690217	     -1.13914857	      0.80853799	     -0.25030807	     -9.44909427	      4.53517085	     -0.02401253	    -13.78318202	     -0.05592781	     -0.00000000	     -0.00000000	     -0.24056191	     28.24688719	     -4.37562705	     -5.67990172	    -30.26597748	      0.24949145	      0.00000000	      0.00000000	     -0.52824096	    -16.01203112	      3.95911371	      0.59392108	     12.50311851	      2.77907825	     -0.00000000	     -8.46222908	     -3.35524723	      0.00000000
      0.33500000	      2.45386083	     -1.17674205	    -10.04664306	     -1.13277859	      0.80745327	     -0.24985664	    -10.19403905	      4.44454327	      0.12910064	    -13.50960503	     -0.04877605	     -0.00000000	     -0.00000000	     -0.23578709	     28.06299188	     -4.54341132	     -6.26998032	    -28.21366079	      0.07374467	      0.00000000	      0.00000000	     -0.49242127	    -16.08595075	      4.06004126	      0.73731908	     12.77277141	      3.01600228	     -0.00000000	     -8.94367981	     -2.14229838	     -0.00000000
      0.34000000	      2.49775558	     -1.30400951	    -10.34580829	     -1.12645208	      0.80624230	     -0.24948153	    -10.81099626	      4.45149972	     -0.05961319	    -13.45652984	     -0.21450742	      0.00000000	      0.00000000	     -0.23486075	     27.87954036	     -4.75269787	     -6.59934864	    -26.14707847	      0.10935310	      0.00000000	      0.00000000	     -0.45635261	    -16.15782781	      4.23670222	      0.82202577	     13.22402920	      3.80305665	     -0.00000000	     -9.70930792	     -1.51819540	      0.00000000
      0.34500000	      2.55482449	     -1.39344105	    -10.74387191	     -1.12002802	      0.80507488	     -0.24902844	    -11.52753708	      4.32555304	      0.16991614	    -13.21657515	     -0.14454517	      0.00000000	      0.00000000	     -0.23067275	     27.68187738	     -4.94975655	     -7.37073473	    -24.18453585	     -0.04169400	     -0.00000000	     -0.00000000	     -0.42209978	    -16.22367689	      4.34968318	      0.99073149	     13.43986653	      3.92984952	     -0.00000000	    -10.44383674	     -0.37189290	      0.00000000
      0.35000000	      2.58983348	     -1.55632318	    -11.05985746	     -1.11359837	      0.80380455	     -0.24858175	    -12.23061904	      4.35293192	      0.29085689	    -12.99191074	     -0.21225879	      0.00000000	      0.00000000	     -0.22675162	     27.52256281	     -5.21091716	     -7.97975002	    -22.34349870	     -0.07560221	     -0.00000000	     -0.00000000	     -0.38996762	    -16.28339694	      4.54586373	      1.08708000	     13.64925688	      4.23964828	      0.00000000	    -11.21919088	      0.48738776	     -0.00000000
      0.35500000	      2.62467218	     -1.62920691	    -11.34811835	     -1.10709370	      0.80248590	     -0.24816560	    -12.81870121	      4.28732041	      0.11983650	    -12.96107244	     -0.36740596	      0.00000000	     -0.00000000	     -0.22621339	     27.37250898	     -5.35864187	     -8.70869284	    -20.57748183	     -0.12898725	      0.00000000	      0.00000000	     -0.35914481	    -16.28888014	      4.63900478	      1.17464128	     14.05040692	      4.91951155	      0.00000000	    -12.07640180	      1.26854439	      0.00000000
